<?xml version="1.0" encoding="UTF-8" standalone="no"?>
<!DOCTYPE svg PUBLIC "-//W3C//DTD SVG 1.1//EN" "http://www.w3.org/Graphics/SVG/1.1/DTD/svg11.dtd">
<svg width="268" height="272" viewBox="0 0 100 100" version="1.1" xmlns="http://www.w3.org/2000/svg" xmlns:xlink="http://www.w3.org/1999/xlink" xml:space="preserve" xmlns:serif="http://www.serif.com/" style="fill-rule:evenodd;clip-rule:evenodd;stroke-linejoin:round;stroke-miterlimit:2;">
    <g transform="matrix(1.0787,0,0,1.0787,-3.93525,-4.93525)">
        <g id="g10">
            <path id="path2" d="M96.076,39.194L79.126,56.147L78.642,56.363L57.174,66.002L67.036,44.053L71.296,39.792L85.496,25.593C85.894,25.961 86.293,26.34 86.684,26.727L72.494,40.91L78.376,40.42L75.925,46.637L75.524,47.655L76.263,47.363L82.755,44.802L82.267,50.684L95.24,37.712C95.53,38.198 95.807,38.693 96.076,39.194ZM80.473,52.479L80.903,47.295L76.891,48.876L72.617,50.564L74.914,44.732L75.887,42.274L73.461,42.475L70.701,42.706L68.408,44.998L64.309,54.121L69.057,58.868L78.179,54.77L78.408,54.541L80.473,52.479Z" style="fill:white;fill-rule:nonzero;"  fill-opacity="0.63"/>
            <path id="path4" d="M78.771,58.939L78.771,59.124C78.771,74.986 65.909,87.849 50.046,87.849C34.18,87.849 21.321,74.987 21.321,59.124L21.321,59.06L47.44,70.79L34.805,42.665L30.352,38.211C32.842,35.864 35.749,33.96 38.961,32.616L38.961,41.968L49.91,70.79L60.867,41.968L60.867,32.505C64.118,33.829 67.075,35.731 69.605,38.082L65.022,42.665L52.387,70.79L78.771,58.939Z" style="fill:white;fill-rule:nonzero;" fill-opacity="0.63" />
            <path id="path6" d="M58.466,12.392L58.466,41.529L49.91,64.02L41.365,41.529L41.365,12.435C41.903,12.344 42.453,12.261 43.006,12.189L43.006,35.446L46.817,30.94L49.911,38.069L53.012,30.94L56.824,35.449L56.824,12.151C57.375,12.223 57.92,12.302 58.466,12.392ZM56.822,41.227L56.822,37.983L53.46,34.012L49.91,42.183L46.361,34.012L43.006,37.983L43.006,41.227L46.555,50.572L53.27,50.572L56.822,41.227Z" style="fill:white;fill-rule:nonzero;" fill-opacity="0.63"/>
            <path id="path8" d="M32.788,44.053L42.65,66.002L21.44,56.476L20.701,56.148L3.924,39.368C4.19,38.869 4.466,38.37 4.753,37.879L17.562,50.684L17.07,44.802L23.789,47.454L24.302,47.655L24.026,46.945L21.449,40.421L27.335,40.911L13.276,26.854C13.664,26.472 14.058,26.091 14.457,25.716L28.672,39.931L32.788,44.053ZM35.512,54.122L31.421,44.999L29.128,42.707L26.615,42.497L23.945,42.275L25.018,45.007L27.214,50.565L23.166,48.97L18.924,47.296L19.355,52.48L21.645,54.772L30.771,58.87L35.512,54.122Z" style="fill:white;fill-rule:nonzero;"  fill-opacity="0.63"/>
        </g>
    </g>
</svg>
